<svg xmlns="http://www.w3.org/2000/svg" xmlns:xlink="http://www.w3.org/1999/xlink" contentStyleType="text/css" data-diagram-type="ACTIVITY" height="1118px" preserveAspectRatio="none" style="width:473px;height:1118px;background:#FFFFFF;" version="1.1" viewBox="0 0 473 1118" width="473px" zoomAndPan="magnify"><?plantuml 1.2026.5?><defs/><g><g class="title" data-source-line="22"><text fill="#000000" font-family="Microsoft YaHei" font-size="14" font-weight="700" lengthAdjust="spacing" textLength="182" x="144.5625" y="34.8135">&#23398;&#29983;&#35838;&#31243;&#39033;&#30446;&#35757;&#32451;&#19982;&#25552;&#20132;&#27969;&#31243;</text></g><ellipse cx="223.2461" cy="64.4775" fill="#222222" rx="10" ry="10" style="stroke:#222222;stroke-width:1;"/><rect fill="#E8F0FF" height="41.1172" rx="12.5" ry="12.5" style="stroke:#4D7CFE;stroke-width:0.5;" width="180" x="133.2461" y="94.4775"/><text fill="#1F2937" font-family="Microsoft YaHei" font-size="16" lengthAdjust="spacing" textLength="160" x="143.2461" y="121.4072">&#36731;&#37327;&#31639;&#21147;&#33410;&#28857;&#29992;&#25143;&#30331;&#24405;</text><polygon fill="#F8FAFC" points="171.3828,157.3994,275.1094,157.3994,287.1094,169.3994,275.1094,181.3994,171.3828,181.3994,159.3828,169.3994,171.3828,157.3994" style="stroke:#64748B;stroke-width:0.5;stroke-linejoin:miter;stroke-miterlimit:10;"/><text fill="#1F2937" font-family="Microsoft YaHei" font-size="16" lengthAdjust="spacing" textLength="103.7266" x="171.3828" y="175.7705">&#20351;&#29992;&#29616;&#25104;&#38236;&#20687;?</text><text fill="#000000" font-family="Microsoft YaHei" font-size="16" lengthAdjust="spacing" textLength="16" x="143.3828" y="165.2119">&#26159;</text><text fill="#000000" font-family="Microsoft YaHei" font-size="16" lengthAdjust="spacing" textLength="96" x="287.1094" y="165.2119">&#21542;&#65292;&#33258;&#24314;&#38236;&#20687;</text><rect fill="#E8F0FF" height="41.1172" rx="12.5" ry="12.5" style="stroke:#4D7CFE;stroke-width:0.5;" width="193.4297" x="16" y="191.3994"/><text fill="#1F2937" font-family="Microsoft YaHei" font-size="16" lengthAdjust="spacing" textLength="173.4297" x="26" y="218.3291">&#20174;&#21326;&#20026;&#20113; SWR &#25289;&#21462;&#38236;&#20687;</text><rect fill="#E8F0FF" height="41.1172" rx="12.5" ry="12.5" style="stroke:#4D7CFE;stroke-width:0.5;" width="134.1563" x="266.6992" y="191.3994"/><text fill="#1F2937" font-family="Microsoft YaHei" font-size="16" lengthAdjust="spacing" textLength="114.1563" x="276.6992" y="218.3291">&#32534;&#20889; Dockerfile</text><rect fill="#E8F0FF" height="41.1172" rx="12.5" ry="12.5" style="stroke:#4D7CFE;stroke-width:0.5;" width="147.75" x="259.9023" y="252.5166"/><text fill="#1F2937" font-family="Microsoft YaHei" font-size="16" lengthAdjust="spacing" textLength="127.75" x="269.9023" y="279.4463">&#26500;&#24314; Docker &#38236;&#20687;</text><rect fill="#E8F0FF" height="41.1172" rx="12.5" ry="12.5" style="stroke:#4D7CFE;stroke-width:0.5;" width="188.6953" x="239.4297" y="366.1924"/><text fill="#1F2937" font-family="Microsoft YaHei" font-size="16" lengthAdjust="spacing" textLength="168.6953" x="249.4297" y="393.1221">&#25512;&#36865;&#38236;&#20687;&#21040;&#21326;&#20026;&#20113; SWR</text><polygon fill="#F8FAFC" points="259.1992,313.6338,408.3555,313.6338,420.3555,325.6338,408.3555,337.6338,259.1992,337.6338,247.1992,325.6338,259.1992,313.6338" style="stroke:#64748B;stroke-width:0.5;stroke-linejoin:miter;stroke-miterlimit:10;"/><text fill="#000000" font-family="Microsoft YaHei" font-size="16" lengthAdjust="spacing" textLength="32" x="337.7773" y="354.5635">&#21487;&#36873;</text><text fill="#1F2937" font-family="Microsoft YaHei" font-size="16" lengthAdjust="spacing" textLength="149.1563" x="259.1992" y="332.0049">&#26159;&#21542;&#25512;&#36865; SWR &#22797;&#29992;?</text><polygon fill="#F8FAFC" points="333.7773,427.3096,345.7773,439.3096,333.7773,451.3096,321.7773,439.3096,333.7773,427.3096" style="stroke:#64748B;stroke-width:0.5;stroke-linejoin:miter;stroke-miterlimit:10;"/><rect fill="#E8F0FF" height="41.1172" rx="12.5" ry="12.5" style="stroke:#4D7CFE;stroke-width:0.5;" width="164" x="251.7773" y="471.3096"/><text fill="#1F2937" font-family="Microsoft YaHei" font-size="16" lengthAdjust="spacing" textLength="144" x="261.7773" y="498.2393">&#25289;&#21462;&#25110;&#21152;&#36733;&#33258;&#24314;&#38236;&#20687;</text><polygon fill="#F8FAFC" points="223.2461,518.4268,235.2461,530.4268,223.2461,542.4268,211.2461,530.4268,223.2461,518.4268" style="stroke:#64748B;stroke-width:0.5;stroke-linejoin:miter;stroke-miterlimit:10;"/><rect fill="#E8F0FF" height="62.2344" rx="12.5" ry="12.5" style="stroke:#4D7CFE;stroke-width:0.5;" width="221.7813" x="112.3555" y="562.4268"/><text fill="#1F2937" font-family="Microsoft YaHei" font-size="16" lengthAdjust="spacing" textLength="201.7813" x="122.3555" y="589.3564">&#20174;&#21326;&#20026;&#20113; OBS &#19979;&#36733;&#22522;&#30784;&#26435;&#37325;</text><text fill="#1F2937" font-family="Microsoft YaHei" font-size="16" lengthAdjust="spacing" textLength="80" x="122.3555" y="610.4736">&#65288;&#20165;&#39318;&#27425;&#65289;</text><rect fill="#E8F0FF" height="41.1172" rx="12.5" ry="12.5" style="stroke:#4D7CFE;stroke-width:0.5;" width="195.75" x="125.3711" y="644.6611"/><text fill="#1F2937" font-family="Microsoft YaHei" font-size="16" lengthAdjust="spacing" textLength="175.75" x="135.3711" y="671.5908">&#21019;&#24314;&#21518;&#35757;&#32451; Docker &#23481;&#22120;</text><rect fill="#E8F0FF" height="41.1172" rx="12.5" ry="12.5" style="stroke:#4D7CFE;stroke-width:0.5;" width="207.0156" x="119.7383" y="749.7783"/><text fill="#1F2937" font-family="Microsoft YaHei" font-size="16" lengthAdjust="spacing" textLength="187.0156" x="129.7383" y="776.708">Docker &#23481;&#22120;&#20869;&#27169;&#22411;&#21518;&#35757;&#32451;</text><rect fill="#E8F0FF" height="41.1172" rx="12.5" ry="12.5" style="stroke:#4D7CFE;stroke-width:0.5;" width="191.0156" x="127.7383" y="818.3955"/><text fill="#1F2937" font-family="Microsoft YaHei" font-size="16" lengthAdjust="spacing" textLength="171.0156" x="137.7383" y="845.3252">Docker &#23481;&#22120;&#20869;&#27169;&#22411;&#35780;&#20272;</text><polygon fill="#F8FAFC" points="223.2461,705.7783,235.2461,717.7783,223.2461,729.7783,211.2461,717.7783,223.2461,705.7783" style="stroke:#64748B;stroke-width:0.5;stroke-linejoin:miter;stroke-miterlimit:10;"/><polygon fill="#F8FAFC" points="123.3828,881.3174,323.1094,881.3174,335.1094,893.3174,323.1094,905.3174,123.3828,905.3174,111.3828,893.3174,123.3828,881.3174" style="stroke:#64748B;stroke-width:0.5;stroke-linejoin:miter;stroke-miterlimit:10;"/><text fill="#1F2937" font-family="Microsoft YaHei" font-size="16" lengthAdjust="spacing" textLength="199.7266" x="123.3828" y="899.6885">&#35780;&#20272;&#32467;&#26524;&#26159;&#21542;&#38656;&#35201;&#32487;&#32493;&#20248;&#21270;?</text><text fill="#000000" font-family="Microsoft YaHei" font-size="16" lengthAdjust="spacing" textLength="64" x="335.1094" y="889.1299">&#38381;&#29615;&#21453;&#39304;</text><rect fill="#E8F0FF" height="41.1172" rx="12.5" ry="12.5" style="stroke:#4D7CFE;stroke-width:0.5;" width="249.0469" x="98.7227" y="925.3174"/><text fill="#1F2937" font-family="Microsoft YaHei" font-size="16" lengthAdjust="spacing" textLength="229.0469" x="108.7227" y="952.2471">&#25171;&#27036;&#27169;&#22411;&#26435;&#37325;&#19978;&#20256;&#21040;&#21326;&#20026;&#20113; OBS</text><ellipse cx="223.2461" cy="997.4346" fill="none" rx="11" ry="11" style="stroke:#222222;stroke-width:1;"/><ellipse cx="223.2461" cy="997.4346" fill="#222222" rx="6" ry="6" style="stroke:#222222;stroke-width:1;"/><line style="stroke:#111827;stroke-width:1.5;" x1="223.2461" x2="223.2461" y1="74.4775" y2="94.4775"/><polygon fill="#111827" points="219.2461,84.4775,223.2461,94.4775,227.2461,84.4775,223.2461,88.4775" style="stroke:#111827;stroke-width:1;stroke-linejoin:miter;stroke-miterlimit:10;"/><line style="stroke:#111827;stroke-width:1.5;" x1="333.7773" x2="333.7773" y1="232.5166" y2="252.5166"/><polygon fill="#111827" points="329.7773,242.5166,333.7773,252.5166,337.7773,242.5166,333.7773,246.5166" style="stroke:#111827;stroke-width:1;stroke-linejoin:miter;stroke-miterlimit:10;"/><line style="stroke:#111827;stroke-width:1.5;" x1="333.7773" x2="333.7773" y1="337.6338" y2="366.1924"/><polygon fill="#111827" points="329.7773,356.1924,333.7773,366.1924,337.7773,356.1924,333.7773,360.1924" style="stroke:#111827;stroke-width:1;stroke-linejoin:miter;stroke-miterlimit:10;"/><line style="stroke:#111827;stroke-width:1.5;" x1="420.3555" x2="438.125" y1="325.6338" y2="325.6338"/><polygon fill="#111827" points="434.125,376.751,438.125,386.751,442.125,376.751,438.125,380.751" style="stroke:#111827;stroke-width:1.5;stroke-linejoin:miter;stroke-miterlimit:10;"/><line style="stroke:#111827;stroke-width:1.5;" x1="438.125" x2="438.125" y1="325.6338" y2="439.3096"/><line style="stroke:#111827;stroke-width:1.5;" x1="438.125" x2="345.7773" y1="439.3096" y2="439.3096"/><polygon fill="#111827" points="355.7773,435.3096,345.7773,439.3096,355.7773,443.3096,351.7773,439.3096" style="stroke:#111827;stroke-width:1;stroke-linejoin:miter;stroke-miterlimit:10;"/><line style="stroke:#111827;stroke-width:1.5;" x1="333.7773" x2="333.7773" y1="407.3096" y2="427.3096"/><polygon fill="#111827" points="329.7773,417.3096,333.7773,427.3096,337.7773,417.3096,333.7773,421.3096" style="stroke:#111827;stroke-width:1;stroke-linejoin:miter;stroke-miterlimit:10;"/><line style="stroke:#111827;stroke-width:1.5;" x1="333.7773" x2="333.7773" y1="293.6338" y2="313.6338"/><polygon fill="#111827" points="329.7773,303.6338,333.7773,313.6338,337.7773,303.6338,333.7773,307.6338" style="stroke:#111827;stroke-width:1;stroke-linejoin:miter;stroke-miterlimit:10;"/><line style="stroke:#111827;stroke-width:1.5;" x1="333.7773" x2="333.7773" y1="451.3096" y2="471.3096"/><polygon fill="#111827" points="329.7773,461.3096,333.7773,471.3096,337.7773,461.3096,333.7773,465.3096" style="stroke:#111827;stroke-width:1;stroke-linejoin:miter;stroke-miterlimit:10;"/><line style="stroke:#111827;stroke-width:1.5;" x1="159.3828" x2="112.7148" y1="169.3994" y2="169.3994"/><line style="stroke:#111827;stroke-width:1.5;" x1="112.7148" x2="112.7148" y1="169.3994" y2="191.3994"/><polygon fill="#111827" points="108.7148,181.3994,112.7148,191.3994,116.7148,181.3994,112.7148,185.3994" style="stroke:#111827;stroke-width:1;stroke-linejoin:miter;stroke-miterlimit:10;"/><line style="stroke:#111827;stroke-width:1.5;" x1="287.1094" x2="333.7773" y1="169.3994" y2="169.3994"/><line style="stroke:#111827;stroke-width:1.5;" x1="333.7773" x2="333.7773" y1="169.3994" y2="191.3994"/><polygon fill="#111827" points="329.7773,181.3994,333.7773,191.3994,337.7773,181.3994,333.7773,185.3994" style="stroke:#111827;stroke-width:1;stroke-linejoin:miter;stroke-miterlimit:10;"/><line style="stroke:#111827;stroke-width:1.5;" x1="112.7148" x2="112.7148" y1="232.5166" y2="530.4268"/><line style="stroke:#111827;stroke-width:1.5;" x1="112.7148" x2="211.2461" y1="530.4268" y2="530.4268"/><polygon fill="#111827" points="201.2461,526.4268,211.2461,530.4268,201.2461,534.4268,205.2461,530.4268" style="stroke:#111827;stroke-width:1;stroke-linejoin:miter;stroke-miterlimit:10;"/><line style="stroke:#111827;stroke-width:1.5;" x1="333.7773" x2="333.7773" y1="512.4268" y2="530.4268"/><line style="stroke:#111827;stroke-width:1.5;" x1="333.7773" x2="235.2461" y1="530.4268" y2="530.4268"/><polygon fill="#111827" points="245.2461,526.4268,235.2461,530.4268,245.2461,534.4268,241.2461,530.4268" style="stroke:#111827;stroke-width:1;stroke-linejoin:miter;stroke-miterlimit:10;"/><line style="stroke:#111827;stroke-width:1.5;" x1="223.2461" x2="223.2461" y1="135.5947" y2="157.3994"/><polygon fill="#111827" points="219.2461,147.3994,223.2461,157.3994,227.2461,147.3994,223.2461,151.3994" style="stroke:#111827;stroke-width:1;stroke-linejoin:miter;stroke-miterlimit:10;"/><line style="stroke:#111827;stroke-width:1.5;" x1="223.2461" x2="223.2461" y1="542.4268" y2="562.4268"/><polygon fill="#111827" points="219.2461,552.4268,223.2461,562.4268,227.2461,552.4268,223.2461,556.4268" style="stroke:#111827;stroke-width:1;stroke-linejoin:miter;stroke-miterlimit:10;"/><line style="stroke:#111827;stroke-width:1.5;" x1="223.2461" x2="223.2461" y1="624.6611" y2="644.6611"/><polygon fill="#111827" points="219.2461,634.6611,223.2461,644.6611,227.2461,634.6611,223.2461,638.6611" style="stroke:#111827;stroke-width:1;stroke-linejoin:miter;stroke-miterlimit:10;"/><line style="stroke:#111827;stroke-width:1.5;" x1="223.2461" x2="223.2461" y1="790.8955" y2="818.3955"/><polygon fill="#111827" points="219.2461,808.3955,223.2461,818.3955,227.2461,808.3955,223.2461,812.3955" style="stroke:#111827;stroke-width:1;stroke-linejoin:miter;stroke-miterlimit:10;"/><line style="stroke:#111827;stroke-width:1.5;" x1="223.2461" x2="223.2461" y1="729.7783" y2="749.7783"/><polygon fill="#111827" points="219.2461,739.7783,223.2461,749.7783,227.2461,739.7783,223.2461,743.7783" style="stroke:#111827;stroke-width:1;stroke-linejoin:miter;stroke-miterlimit:10;"/><line style="stroke:#111827;stroke-width:1.5;" x1="335.1094" x2="347.1094" y1="893.3174" y2="893.3174"/><polygon fill="#111827" points="343.1094,810.8955,347.1094,800.8955,351.1094,810.8955,347.1094,806.8955" style="stroke:#111827;stroke-width:1.5;stroke-linejoin:miter;stroke-miterlimit:10;"/><line style="stroke:#111827;stroke-width:1.5;" x1="347.1094" x2="347.1094" y1="717.7783" y2="893.3174"/><line style="stroke:#111827;stroke-width:1.5;" x1="347.1094" x2="235.2461" y1="717.7783" y2="717.7783"/><polygon fill="#111827" points="245.2461,713.7783,235.2461,717.7783,245.2461,721.7783,241.2461,717.7783" style="stroke:#111827;stroke-width:1;stroke-linejoin:miter;stroke-miterlimit:10;"/><line style="stroke:#111827;stroke-width:1.5;" x1="223.2461" x2="223.2461" y1="859.5127" y2="881.3174"/><polygon fill="#111827" points="219.2461,871.3174,223.2461,881.3174,227.2461,871.3174,223.2461,875.3174" style="stroke:#111827;stroke-width:1;stroke-linejoin:miter;stroke-miterlimit:10;"/><line style="stroke:#111827;stroke-width:1.5;" x1="223.2461" x2="223.2461" y1="685.7783" y2="705.7783"/><polygon fill="#111827" points="219.2461,695.7783,223.2461,705.7783,227.2461,695.7783,223.2461,699.7783" style="stroke:#111827;stroke-width:1;stroke-linejoin:miter;stroke-miterlimit:10;"/><line style="stroke:#111827;stroke-width:1.5;" x1="223.2461" x2="223.2461" y1="905.3174" y2="925.3174"/><polygon fill="#111827" points="219.2461,915.3174,223.2461,925.3174,227.2461,915.3174,223.2461,919.3174" style="stroke:#111827;stroke-width:1;stroke-linejoin:miter;stroke-miterlimit:10;"/><line style="stroke:#111827;stroke-width:1.5;" x1="223.2461" x2="223.2461" y1="966.4346" y2="986.4346"/><polygon fill="#111827" points="219.2461,976.4346,223.2461,986.4346,227.2461,976.4346,223.2461,980.4346" style="stroke:#111827;stroke-width:1;stroke-linejoin:miter;stroke-miterlimit:10;"/><g class="legend" data-source-line="49"><rect fill="none" height="65.4326" rx="7.5" ry="7.5" style="stroke:#000000;stroke-width:1;" width="265.4658" x="183.6592" y="1029.4346"/><text fill="#000000" font-family="Microsoft YaHei" font-size="14" lengthAdjust="spacing" textLength="255.4658" x="188.6592" y="1049.248">SWR&#65306;&#20445;&#23384;&#35838;&#31243;&#22522;&#30784;&#38236;&#20687;&#25110;&#23398;&#29983;&#33258;&#24314;&#38236;&#20687;</text><text fill="#000000" font-family="Microsoft YaHei" font-size="14" lengthAdjust="spacing" textLength="224.2734" x="188.6592" y="1067.7256">OBS&#65306;&#20445;&#23384;&#22522;&#30784;&#26435;&#37325;&#19982;&#26368;&#32456;&#25171;&#27036;&#26435;&#37325;</text><text fill="#000000" font-family="Microsoft YaHei" font-size="14" lengthAdjust="spacing" textLength="210" x="188.6592" y="1086.2031">&#21518;&#35757;&#32451;&#21644;&#26412;&#22320;&#35780;&#20272;&#22343;&#22312;&#23481;&#22120;&#20869;&#23436;&#25104;</text></g><?plantuml-src ZLBBRjf05DtxAwRgXcogaf90mw8A4DHDKwcfL5Ngne81BC16nccKLfL8yy2yQPEGf74UI155LNXigX9icf_nUF2AN-ZO1cGIHQftllVSSyyvSn-bU3gQf462tkJM1P1EGe5cQOfAnnasHVDq4lZeK3pAS-jisCybE1uy3fgV3K671EOZ8so2pnIu3r_n19yIEEbmV1ZouwehuFO7LqWroB72kEOCpZz_vXxNLkaa1A-O4C-bkOW0tjCl8JDkhJ6V870kahy0GoSvDdnVeYUu7FJR0FRLYowto-EZljWSBFCyjp5HuNHwvjrtcszZJ2ZEmdGQE9yis9ghd00VMdy7PTVWzmKMLfnt40_QlW-p8d3PEc4OeTSJmdzms92J92c14H8Ge5O37rmCEtzniw3NR_1fUzXkONbRxPMrIbNjNsc_jqYBN8T0ymArD1p8UhQ2sqSeVphCVyLVR_11KnF_u1CP3Gwz5CL4W4CTt98gBdSriQeVIcYxyc8E23780eTst9aZZxIaocLKAgkzljh_1jRUlG5Q8OSgDGljfM0Y3O43LHiZfJZC_a9ot-gOirYfeRqJ4E12SSX7c0Jq6bNjV8V0nbKm8GB044Is4YwjtDGpM-OsT5KY2gUgKAMZPt86kK5amYm297PdP1g4a0qp4NEZALaJQoX_EHmCx3g90nD5pHfzxLi3Qgz0mEYYZ-iPxMnRpvO-i2D5LELTlL7JhkiZ9UUbbf1uIiXGjMmznyGMQj-WaoQ9cOSfI0k6YfaEsjlLcdLqNfXEUX_633ixgjBrZhd0Hen42HnM5SlxshbavQPBcM5Z2yi_iTnIbMDKh97Wc3Hmw4SjNEwWIablY7F4gvRRrngIHMvPKtjvLRcSIP5au2NNnAKeAW6Z92R0Cz6OOONaEr9-gBTdg7LiNQILaXMfaRDrhBQSoHJXcqxPKpKkMCfWMHohCei4Fqq6VIzgqZMIkfPZT9P5KdCQ4MeNoVKQpsYffFu1?></g></svg>