<svg xmlns="http://www.w3.org/2000/svg" xmlns:xlink="http://www.w3.org/1999/xlink" contentStyleType="text/css" data-diagram-type="DESCRIPTION" height="1184px" preserveAspectRatio="none" style="width:966px;height:1184px;background:#FFFFFF;" version="1.1" viewBox="0 0 966 1184" width="966px" zoomAndPan="magnify"><?plantuml 1.2026.5?><defs/><g><g class="title" data-source-line="23"><text fill="#000000" font-family="Microsoft YaHei" font-size="22" font-weight="700" lengthAdjust="spacing" textLength="312.834" x="323.438" y="33.2783">FIM &#27979;&#35780;&#24179;&#21488;&#31995;&#32479;&#19978;&#19979;&#25991;&#33539;&#22260;&#22270;</text></g><!--cluster Platform--><g class="cluster" data-qualified-name="Platform" data-source-line="33" id="ent0006"><rect fill="#F8FAFC" height="963" rx="8" ry="8" style="stroke:#2563EB;stroke-width:1;" width="418" x="534.71" y="185.5361"/><text fill="#000000" font-family="Microsoft YaHei" font-size="14" font-weight="700" lengthAdjust="spacing" textLength="87.0762" x="700.1719" y="202.3496">FIM &#27979;&#35780;&#24179;&#21488;</text><text fill="#000000" font-family="Microsoft YaHei" font-size="14" font-weight="700" lengthAdjust="spacing" textLength="70" x="708.71" y="220.8271">&#26412;&#31995;&#32479;&#36793;&#30028;</text></g><!--cluster External--><g class="cluster" data-qualified-name="External" data-source-line="50" id="ent0020"><rect fill="#F8FAFC" height="516" rx="8" ry="8" style="stroke:#2563EB;stroke-width:1;" width="336" x="167.71" y="497.5361"/><text fill="#000000" font-family="Microsoft YaHei" font-size="14" font-weight="700" lengthAdjust="spacing" textLength="126" x="272.71" y="514.3496">&#22806;&#37096;&#26381;&#21153;&#19982;&#36816;&#34892;&#29615;&#22659;</text></g><!--entity Web--><g class="entity" data-qualified-name="Platform.Web" data-source-line="34" id="ent0007"><rect fill="#FFFFFF" height="66.9551" rx="8" ry="8" style="stroke:#94A3B8;stroke-width:0.5;" width="194" x="551.71" y="240.5361"/><rect fill="#FFFFFF" height="10" style="stroke:#94A3B8;stroke-width:0.5;" width="15" x="725.71" y="245.5361"/><rect fill="#FFFFFF" height="2" style="stroke:#94A3B8;stroke-width:0.5;" width="4" x="723.71" y="247.5361"/><rect fill="#FFFFFF" height="2" style="stroke:#94A3B8;stroke-width:0.5;" width="4" x="723.71" y="251.5361"/><text fill="#000000" font-family="Microsoft YaHei" font-size="14" lengthAdjust="spacing" textLength="114.0713" x="566.71" y="275.3496">Web &#25511;&#21046;&#21488; / API</text><text fill="#000000" font-family="Microsoft YaHei" font-size="14" lengthAdjust="spacing" textLength="154" x="566.71" y="293.8271">&#20219;&#21153;&#12289;&#26435;&#38480;&#12289;&#36827;&#24230;&#12289;&#26597;&#35810;</text></g><!--entity TAClient--><g class="entity" data-qualified-name="Platform.TAClient" data-source-line="35" id="ent0008"><rect fill="#DBEAFE" height="85.4326" rx="8" ry="8" style="stroke:#94A3B8;stroke-width:0.5;" width="195.7295" x="580.71" y="360.5361"/><rect fill="#DBEAFE" height="10" style="stroke:#94A3B8;stroke-width:0.5;" width="15" x="756.4395" y="365.5361"/><rect fill="#DBEAFE" height="2" style="stroke:#94A3B8;stroke-width:0.5;" width="4" x="754.4395" y="367.5361"/><rect fill="#DBEAFE" height="2" style="stroke:#94A3B8;stroke-width:0.5;" width="4" x="754.4395" y="371.5361"/><text fill="#000000" font-family="Microsoft YaHei" font-size="14" lengthAdjust="spacing" textLength="55.2686" x="595.71" y="395.3496">ta-client</text><text fill="#000000" font-family="Microsoft YaHei" font-size="14" lengthAdjust="spacing" textLength="112.3281" x="595.71" y="413.8271">&#30003;&#35831;&#21161;&#25945;&#21482;&#35835; STS</text><text fill="#000000" font-family="Microsoft YaHei" font-size="14" lengthAdjust="spacing" textLength="155.7295" x="595.71" y="432.3047">&#21015;&#20030;&#24182;&#19979;&#36733; submissions</text></g><!--entity Validator--><g class="entity" data-qualified-name="Platform.Validator" data-source-line="36" id="ent0009"><rect fill="#FFFFFF" height="66.9551" rx="8" ry="8" style="stroke:#94A3B8;stroke-width:0.5;" width="228.8223" x="701.21" y="543.5361"/><rect fill="#FFFFFF" height="10" style="stroke:#94A3B8;stroke-width:0.5;" width="15" x="910.0323" y="548.5361"/><rect fill="#FFFFFF" height="2" style="stroke:#94A3B8;stroke-width:0.5;" width="4" x="908.0323" y="550.5361"/><rect fill="#FFFFFF" height="2" style="stroke:#94A3B8;stroke-width:0.5;" width="4" x="908.0323" y="554.5361"/><text fill="#000000" font-family="Microsoft YaHei" font-size="14" lengthAdjust="spacing" textLength="112" x="716.21" y="578.3496">&#27169;&#22411;&#26681;&#30446;&#24405;&#26657;&#39564;&#22120;</text><text fill="#000000" font-family="Microsoft YaHei" font-size="14" lengthAdjust="spacing" textLength="188.8223" x="716.21" y="596.8271">config / tokenizer / &#26435;&#37325;&#26657;&#39564;</text></g><!--entity Orchestrator--><g class="entity" data-qualified-name="Platform.Orchestrator" data-source-line="37" id="ent0010"><rect fill="#FFFFFF" height="66.9551" rx="8" ry="8" style="stroke:#94A3B8;stroke-width:0.5;" width="166" x="702.71" y="672.5361"/><rect fill="#FFFFFF" height="10" style="stroke:#94A3B8;stroke-width:0.5;" width="15" x="848.71" y="677.5361"/><rect fill="#FFFFFF" height="2" style="stroke:#94A3B8;stroke-width:0.5;" width="4" x="846.71" y="679.5361"/><rect fill="#FFFFFF" height="2" style="stroke:#94A3B8;stroke-width:0.5;" width="4" x="846.71" y="683.5361"/><text fill="#000000" font-family="Microsoft YaHei" font-size="14" lengthAdjust="spacing" textLength="70" x="717.71" y="707.3496">&#20219;&#21153;&#32534;&#25490;&#22120;</text><text fill="#000000" font-family="Microsoft YaHei" font-size="14" lengthAdjust="spacing" textLength="126" x="717.71" y="725.8271">&#38431;&#21015;&#12289;&#24130;&#31561;&#12289;&#29366;&#24577;&#26426;</text></g><!--entity Worker--><g class="entity" data-qualified-name="Platform.Worker" data-source-line="38" id="ent0011"><rect fill="#FFFFFF" height="66.9551" rx="8" ry="8" style="stroke:#94A3B8;stroke-width:0.5;" width="192.6055" x="659.21" y="801.5361"/><rect fill="#FFFFFF" height="10" style="stroke:#94A3B8;stroke-width:0.5;" width="15" x="831.8155" y="806.5361"/><rect fill="#FFFFFF" height="2" style="stroke:#94A3B8;stroke-width:0.5;" width="4" x="829.8155" y="808.5361"/><rect fill="#FFFFFF" height="2" style="stroke:#94A3B8;stroke-width:0.5;" width="4" x="829.8155" y="812.5361"/><text fill="#000000" font-family="Microsoft YaHei" font-size="14" lengthAdjust="spacing" textLength="81.5459" x="674.21" y="836.3496">&#35780;&#27979; Worker</text><text fill="#000000" font-family="Microsoft YaHei" font-size="14" lengthAdjust="spacing" textLength="152.6055" x="674.21" y="854.8271">prompt &#23548;&#20986;&#19982;&#25351;&#26631;&#35745;&#31639;</text></g><!--entity Adapter--><g class="entity" data-qualified-name="Platform.Adapter" data-source-line="39" id="ent0012"><rect fill="#FFFFFF" height="66.9551" rx="8" ry="8" style="stroke:#94A3B8;stroke-width:0.5;" width="192.9063" x="551.21" y="930.5361"/><rect fill="#FFFFFF" height="10" style="stroke:#94A3B8;stroke-width:0.5;" width="15" x="724.1163" y="935.5361"/><rect fill="#FFFFFF" height="2" style="stroke:#94A3B8;stroke-width:0.5;" width="4" x="722.1163" y="937.5361"/><rect fill="#FFFFFF" height="2" style="stroke:#94A3B8;stroke-width:0.5;" width="4" x="722.1163" y="941.5361"/><text fill="#000000" font-family="Microsoft YaHei" font-size="14" lengthAdjust="spacing" textLength="70" x="566.21" y="965.3496">&#21518;&#31471;&#36866;&#37197;&#22120;</text><text fill="#000000" font-family="Microsoft YaHei" font-size="14" lengthAdjust="spacing" textLength="152.9063" x="566.21" y="983.8271">&#32479;&#19968; generation JSONL</text></g><!--entity Publisher--><g class="entity" data-qualified-name="Platform.Publisher" data-source-line="40" id="ent0013"><rect fill="#F0F9FF" height="66.9551" rx="8" ry="8" style="stroke:#94A3B8;stroke-width:0.5;" width="306.7998" x="551.21" y="1065.5361"/><rect fill="#F0F9FF" height="10" style="stroke:#94A3B8;stroke-width:0.5;" width="15" x="838.0098" y="1070.5361"/><rect fill="#F0F9FF" height="2" style="stroke:#94A3B8;stroke-width:0.5;" width="4" x="836.0098" y="1072.5361"/><rect fill="#F0F9FF" height="2" style="stroke:#94A3B8;stroke-width:0.5;" width="4" x="836.0098" y="1076.5361"/><text fill="#000000" font-family="Microsoft YaHei" font-size="14" lengthAdjust="spacing" textLength="112" x="566.21" y="1100.3496">&#25253;&#21578;&#19982;&#27036;&#21333;&#21457;&#24067;&#22120;</text><text fill="#000000" font-family="Microsoft YaHei" font-size="14" lengthAdjust="spacing" textLength="266.7998" x="566.21" y="1118.8271">&#20869;&#37096;&#25253;&#21578; / &#23398;&#29983;&#25688;&#35201; / &#20844;&#24320;&#27036;&#21333; / &#23457;&#35745;&#25688;&#35201;</text></g><!--entity Issuer--><g class="entity" data-qualified-name="External.Issuer" data-source-line="51" id="ent0021"><rect fill="#FFF7ED" height="85.4326" rx="8" ry="8" style="stroke:#94A3B8;stroke-width:0.5;" width="156.4707" x="327.71" y="534.5361"/><rect fill="#FFF7ED" height="10" style="stroke:#94A3B8;stroke-width:0.5;" width="15" x="464.1807" y="539.5361"/><rect fill="#FFF7ED" height="2" style="stroke:#94A3B8;stroke-width:0.5;" width="4" x="462.1807" y="541.5361"/><rect fill="#FFF7ED" height="2" style="stroke:#94A3B8;stroke-width:0.5;" width="4" x="462.1807" y="545.5361"/><text fill="#000000" font-family="Microsoft YaHei" font-size="14" lengthAdjust="spacing" textLength="98.9297" x="342.71" y="569.3496">course-obs-sts</text><text fill="#000000" font-family="Microsoft YaHei" font-size="14" lengthAdjust="spacing" textLength="85.0664" x="342.71" y="587.8271">issuer-server</text><text fill="#000000" font-family="Microsoft YaHei" font-size="14" lengthAdjust="spacing" textLength="116.4707" x="342.71" y="606.3047">&#22806;&#37096; STS &#31614;&#21457;&#26381;&#21153;</text></g><!--entity OBS--><g class="entity" data-qualified-name="External.OBS" data-source-line="52" id="ent0022"><path d="M203.21,683.0361 C203.21,673.0361 335.7032,673.0361 335.7032,673.0361 C335.7032,673.0361 468.1963,673.0361 468.1963,683.0361 L468.1963,728.9912 C468.1963,738.9912 335.7032,738.9912 335.7032,738.9912 C335.7032,738.9912 203.21,738.9912 203.21,728.9912 L203.21,683.0361" fill="#ECFDF5" style="stroke:#22C55E;stroke-width:0.5;"/><path d="M203.21,683.0361 C203.21,693.0361 335.7032,693.0361 335.7032,693.0361 C335.7032,693.0361 468.1963,693.0361 468.1963,683.0361" fill="none" style="stroke:#22C55E;stroke-width:0.5;"/><text fill="#000000" font-family="Microsoft YaHei" font-size="14" lengthAdjust="spacing" textLength="74.416" x="213.21" y="711.8496">&#21326;&#20026;&#20113; OBS</text><text fill="#000000" font-family="Microsoft YaHei" font-size="14" lengthAdjust="spacing" textLength="244.9863" x="213.21" y="730.3271">submissions / artifacts / leaderboard</text></g><!--entity Backends--><g class="entity" data-qualified-name="External.Backends" data-source-line="53" id="ent0023"><path d="M195.5038,802.7052 C201.5251,792.6428 208.332,791.8505 216.2887,800.5626 C220.4077,790.8821 227.0552,791.0305 233.8662,797.6616 C239.801,788.8997 246.2071,785.7279 253.8038,795.9127 C261.2739,784.6865 268.8471,787.3868 275.0338,797.2072 C280.2686,785.8982 287.3297,785.1947 294.826,795.0971 C299.9184,783.0166 308.3179,783.8766 315.7225,792.7963 C322.3262,781.4526 330.9575,779.9748 338.8041,791.5442 C345.5603,781.9404 352.4262,784.067 357.999,792.7841 C364.7434,784.0008 371.4196,783.7116 376.9644,793.9785 C383.3357,784.5854 394.5728,784.4256 400.2777,794.7657 C406.1852,786.343 413.6355,785.7397 418.5297,795.7681 C425.7584,785.8628 435.9303,789.8441 439.6848,799.5212 C445.6027,789.2935 455.1476,791.5502 459.4891,801.0998 C466.7385,790.0564 474.6442,790.5087 480.7769,802.1478 C501.7664,806.8027 506.4144,821.3205 493.0386,837.7959 C505.5603,853.4995 500.0486,865.7944 481.9668,871.4212 C474.1739,881.5181 467.0202,881.0876 459.4712,871.1474 C455.0615,880.9743 449.3722,881.03 441.5407,875.0219 C435.9163,886.8093 427.1802,886.1862 419.9183,876.6851 C412.375,885.1077 402.49,887.0093 397.4934,874.0182 C394.762,885.0635 386.3173,886.903 378.9554,878.4119 C373.1728,889.0972 363.0289,889.1107 358.1535,877.5631 C352.6501,887.5466 343.9077,887.5342 338.3442,877.623 C331.5969,887.0184 322.1101,887.4393 315.5733,877.3766 C308.5732,885.3816 302.3647,886.5111 296.553,876.1461 C289.968,886.6406 280.5234,885.0287 275.831,874.2983 C270.0518,883.3703 263.3777,884.0824 256.1008,876.0234 C248.6506,885.3315 240.9537,884.9343 234.1874,875.235 C227.0414,882.8645 219.0516,882.9042 214.9016,872.1005 C207.6813,881.4393 199.7873,880.8145 194.5136,870.1195 C177.3605,862.4944 175.1021,852.7903 186.9547,838.2792 C173.7197,824.6739 176.5367,808.5718 195.5038,802.7052" fill="#F5F3FF" style="stroke:#181818;stroke-width:0.5;"/><text fill="#000000" font-family="Microsoft YaHei" font-size="14" lengthAdjust="spacing" textLength="126" x="199.21" y="822.3496">&#25512;&#29702;&#21518;&#31471;&#19982;&#36816;&#34892;&#29615;&#22659;</text><text fill="#000000" font-family="Microsoft YaHei" font-size="14" lengthAdjust="spacing" textLength="272.9932" x="199.21" y="840.8271">MindSpeed / vLLM / OpenAI-compatible</text><text fill="#000000" font-family="Microsoft YaHei" font-size="14" lengthAdjust="spacing" textLength="134.8115" x="199.21" y="859.3047">Diffusion / fast_dllm</text></g><!--entity Leaderboard--><g class="entity" data-qualified-name="External.Leaderboard" data-source-line="54" id="ent0024"><rect fill="#F0F9FF" height="66.9551" rx="8" ry="8" style="stroke:#94A3B8;stroke-width:0.5;" width="166" x="192.71" y="930.5361"/><rect fill="#F0F9FF" height="10" style="stroke:#94A3B8;stroke-width:0.5;" width="15" x="338.71" y="935.5361"/><rect fill="#F0F9FF" height="2" style="stroke:#94A3B8;stroke-width:0.5;" width="4" x="336.71" y="937.5361"/><rect fill="#F0F9FF" height="2" style="stroke:#94A3B8;stroke-width:0.5;" width="4" x="336.71" y="941.5361"/><text fill="#000000" font-family="Microsoft YaHei" font-size="14" lengthAdjust="spacing" textLength="98" x="207.71" y="965.3496">&#24050;&#21457;&#24067;&#27036;&#21333;&#39029;&#38754;</text><text fill="#000000" font-family="Microsoft YaHei" font-size="14" lengthAdjust="spacing" textLength="126" x="207.71" y="983.8271">&#23398;&#29983;&#21487;&#35775;&#38382;&#20844;&#24320;&#35270;&#22270;</text></g><!--entity Student--><g class="entity" data-qualified-name="Student" data-source-line="26" id="ent0001"><ellipse cx="370.71" cy="64.0361" fill="#EFF6FF" rx="8" ry="8" style="stroke:#60A5FA;stroke-width:0.5;"/><path d="M370.71,72.0361 L370.71,99.0361 M357.71,80.0361 L383.71,80.0361 M370.71,99.0361 L357.71,114.0361 M370.71,99.0361 L383.71,114.0361" fill="none" style="stroke:#60A5FA;stroke-width:0.5;"/><text fill="#000000" font-family="Microsoft YaHei" font-size="14" lengthAdjust="spacing" textLength="28" x="356.71" y="130.3496">&#23398;&#29983;</text></g><!--entity Teacher--><g class="entity" data-qualified-name="Teacher" data-source-line="27" id="ent0002"><ellipse cx="575.71" cy="64.0361" fill="#EFF6FF" rx="8" ry="8" style="stroke:#60A5FA;stroke-width:0.5;"/><path d="M575.71,72.0361 L575.71,99.0361 M562.71,80.0361 L588.71,80.0361 M575.71,99.0361 L562.71,114.0361 M575.71,99.0361 L588.71,114.0361" fill="none" style="stroke:#60A5FA;stroke-width:0.5;"/><text fill="#000000" font-family="Microsoft YaHei" font-size="14" lengthAdjust="spacing" textLength="28" x="561.71" y="130.3496">&#21161;&#25945;</text></g><!--entity Admin--><g class="entity" data-qualified-name="Admin" data-source-line="28" id="ent0003"><ellipse cx="698.71" cy="64.0361" fill="#EFF6FF" rx="8" ry="8" style="stroke:#60A5FA;stroke-width:0.5;"/><path d="M698.71,72.0361 L698.71,99.0361 M685.71,80.0361 L711.71,80.0361 M698.71,99.0361 L685.71,114.0361 M698.71,99.0361 L711.71,114.0361" fill="none" style="stroke:#60A5FA;stroke-width:0.5;"/><text fill="#000000" font-family="Microsoft YaHei" font-size="14" lengthAdjust="spacing" textLength="42" x="677.71" y="130.3496">&#31649;&#29702;&#21592;</text></g><!--link Student to Teacher--><!--link Teacher to Admin--><!--link Web to TAClient--><!--link Web to TAClient--><g class="link" data-entity-1="ent0007" data-entity-2="ent0008" data-link-type="dependency" data-source-line="70" id="lnk35"><path d="M656.44,307.7461 C660.22,323.7661 663.6691,338.3704 667.7091,355.4504" fill="none" id="Web-to-TAClient" style="stroke:#334155;stroke-width:1.5;"/><polygon fill="#334155" points="668.86,360.3161,670.6809,350.6371,667.7091,355.4504,662.8958,352.4785,668.86,360.3161" style="stroke:#334155;stroke-width:1.5;stroke-linejoin:miter;stroke-miterlimit:10;"/><text fill="#000000" font-family="Microsoft YaHei" font-size="13" lengthAdjust="spacing" textLength="130.8633" x="664.71" y="339.2915">&#21019;&#24314; submission sync</text></g><!--link TAClient to Validator--><!--link TAClient to Validator--><g class="link" data-entity-1="ent0008" data-entity-2="ent0009" data-link-type="dependency" data-source-line="74" id="lnk39"><path d="M724.48,445.7961 C729.8,451.2561 735,456.9161 739.71,462.5361 C761.21,488.1461 779.4593,515.718 793.8793,539.148" fill="none" id="TAClient-to-Validator" style="stroke:#334155;stroke-width:1.5;"/><polygon fill="#334155" points="796.5,543.4061,795.1893,533.6449,793.8793,539.148,788.3762,537.838,796.5,543.4061" style="stroke:#334155;stroke-width:1.5;stroke-linejoin:miter;stroke-miterlimit:10;"/><text fill="#000000" font-family="Microsoft YaHei" font-size="13" lengthAdjust="spacing" textLength="104" x="753.71" y="477.2915">&#20132;&#20184;&#26412;&#22320;&#38236;&#20687;&#30446;&#24405;</text></g><!--link Validator to Orchestrator--><!--link Validator to Orchestrator--><g class="link" data-entity-1="ent0009" data-entity-2="ent0010" data-link-type="dependency" data-source-line="75" id="lnk40"><path d="M807.99,610.7461 C803.51,629.7061 799.0403,648.6303 794.5603,667.5803" fill="none" id="Validator-to-Orchestrator" style="stroke:#334155;stroke-width:1.5;"/><polygon fill="#334155" points="793.41,672.4461,799.3733,664.6078,794.5603,667.5803,791.5879,662.7673,793.41,672.4461" style="stroke:#334155;stroke-width:1.5;stroke-linejoin:miter;stroke-miterlimit:10;"/><text fill="#000000" font-family="Microsoft YaHei" font-size="13" lengthAdjust="spacing" textLength="117" x="801.71" y="651.2915">&#36890;&#36807;&#26657;&#39564;&#30340;&#27169;&#22411;&#28165;&#21333;</text></g><!--link Orchestrator to Worker--><!--link Orchestrator to Worker--><g class="link" data-entity-1="ent0010" data-entity-2="ent0011" data-link-type="dependency" data-source-line="76" id="lnk41"><path d="M777.99,739.7461 C773.51,758.7061 769.0403,777.6303 764.5603,796.5803" fill="none" id="Orchestrator-to-Worker" style="stroke:#334155;stroke-width:1.5;"/><polygon fill="#334155" points="763.41,801.4461,769.3733,793.6078,764.5603,796.5803,761.5879,791.7673,763.41,801.4461" style="stroke:#334155;stroke-width:1.5;stroke-linejoin:miter;stroke-miterlimit:10;"/><text fill="#000000" font-family="Microsoft YaHei" font-size="13" lengthAdjust="spacing" textLength="104" x="773.71" y="771.2915">&#29983;&#25104;&#35780;&#27979;&#36816;&#34892;&#35745;&#21010;</text></g><!--link Worker to Adapter--><!--link Worker to Adapter--><g class="link" data-entity-1="ent0011" data-entity-2="ent0012" data-link-type="dependency" data-source-line="77" id="lnk42"><path d="M717.6,868.6561 C709.01,876.7461 700.23,885.6461 692.71,894.5361 C683.34,905.6161 676.9853,914.5284 669.4853,926.3084" fill="none" id="Worker-to-Adapter" style="stroke:#334155;stroke-width:1.5;"/><polygon fill="#334155" points="666.8,930.5261,675.0077,925.0825,669.4853,926.3084,668.2594,920.786,666.8,930.5261" style="stroke:#334155;stroke-width:1.5;stroke-linejoin:miter;stroke-miterlimit:10;"/><text fill="#000000" font-family="Microsoft YaHei" font-size="13" lengthAdjust="spacing" textLength="91" x="693.71" y="909.2915">&#35843;&#29992;&#21518;&#31471;&#36866;&#37197;&#22120;</text></g><!--link Adapter to Publisher--><!--link Issuer to OBS--><!--link OBS to Backends--><!--link Backends to Leaderboard--><!--link Student to Issuer--><g class="link" data-entity-1="ent0001" data-entity-2="ent0021" data-link-type="dependency" data-source-line="61" id="lnk28"><path d="M375.94,133.5361 C381.97,178.9061 391.69,257.1061 396.71,324.5361 C402.2,398.1661 404.287,479.1868 405.117,529.1568" fill="none" id="Student-to-Issuer" style="stroke:#2563EB;stroke-width:1.5;"/><polygon fill="#2563EB" points="405.2,534.1561,409.05,525.0909,405.117,529.1568,401.0511,525.2238,405.2,534.1561" style="stroke:#2563EB;stroke-width:1.5;stroke-linejoin:miter;stroke-miterlimit:10;"/><text fill="#000000" font-family="Microsoft YaHei" font-size="13" lengthAdjust="spacing" textLength="78.3047" x="398.71" y="339.2915">&#30003;&#35831;&#19978;&#20256; STS</text></g><!--link Issuer to Student--><g class="link" data-entity-1="ent0021" data-entity-2="ent0001" data-link-type="dependency" data-source-line="62" id="lnk29"><path d="M403.41,534.2261 C398.79,487.1761 384.98,410.7761 343.71,360.5361 C333.24,347.7861 319.3,357.6261 310.71,343.5361 C264.71,268.0861 324.0533,163.7675 353.7233,119.5675" fill="none" id="Issuer-to-Student" style="stroke:#334155;stroke-width:1.5;stroke-dasharray:7,7;"/><polygon fill="#334155" points="356.51,115.4161,348.1728,120.6593,353.7233,119.5675,354.8151,125.118,356.51,115.4161" style="stroke:#334155;stroke-width:1.5;stroke-linejoin:miter;stroke-miterlimit:10;"/><text fill="#000000" font-family="Microsoft YaHei" font-size="13" lengthAdjust="spacing" textLength="78" x="311.71" y="339.2915">&#36820;&#22238;&#19978;&#20256;&#20973;&#35777;</text></g><!--link Student to OBS--><g class="link" data-entity-1="ent0001" data-entity-2="ent0022" data-link-type="dependency" data-source-line="63" id="lnk30"><path d="M356.56,105.8561 C338.11,120.0261 306.07,147.2061 287.71,177.5361 C243.68,250.3061 244.3,276.4161 231.71,360.5361 C226.12,397.8961 224.56,408.4461 231.71,445.5361 C248.26,531.3161 290.6422,620.3358 315.7122,668.2558" fill="none" id="Student-to-OBS" style="stroke:#2563EB;stroke-width:1.5;"/><polygon fill="#2563EB" points="318.03,672.6861,317.4022,662.8573,315.7122,668.2558,310.3137,666.5658,318.03,672.6861" style="stroke:#2563EB;stroke-width:1.5;stroke-linejoin:miter;stroke-miterlimit:10;"/><text fill="#000000" font-family="Microsoft YaHei" font-size="13" lengthAdjust="spacing" textLength="104" x="232.71" y="408.2915">&#19978;&#20256;&#27169;&#22411;&#26435;&#37325;&#30446;&#24405;</text></g><!--link Student to Web--><g class="link" data-entity-1="ent0001" data-entity-2="ent0007" data-link-type="dependency" data-source-line="64" id="lnk31"><path d="M384.83,105.2961 C405.65,119.6361 445.88,147.1061 480.71,169.5361 C518.44,193.8361 557.2774,217.769 590.3774,237.889" fill="none" id="Student-to-Web" style="stroke:#334155;stroke-width:1.5;"/><polygon fill="#334155" points="594.65,240.4861,589.037,232.3933,590.3774,237.889,584.8817,239.2294,594.65,240.4861" style="stroke:#334155;stroke-width:1.5;stroke-linejoin:miter;stroke-miterlimit:10;"/><text fill="#000000" font-family="Microsoft YaHei" font-size="13" lengthAdjust="spacing" textLength="78" x="481.71" y="165.2915">&#26597;&#30475;&#26412;&#20154;&#32467;&#26524;</text></g><!--link Student to Leaderboard--><g class="link" data-entity-1="ent0001" data-entity-2="ent0024" data-link-type="dependency" data-source-line="65" id="lnk32"><path d="M356.7,99.1461 C307.66,112.6961 146.71,165.3661 146.71,273.0361 C146.71,273.0361 146.71,273.0361 146.71,836.0361 C146.71,876.7361 175.5572,905.9865 208.1872,927.6965" fill="none" id="Student-to-Leaderboard" style="stroke:#334155;stroke-width:1.5;"/><polygon fill="#334155" points="212.35,930.4661,207.0727,922.1505,208.1872,927.6965,202.6412,928.811,212.35,930.4661" style="stroke:#334155;stroke-width:1.5;stroke-linejoin:miter;stroke-miterlimit:10;"/><text fill="#000000" font-family="Microsoft YaHei" font-size="13" lengthAdjust="spacing" textLength="78" x="147.71" y="582.2915">&#26597;&#30475;&#20844;&#24320;&#27036;&#21333;</text></g><!--link Teacher to Web--><g class="link" data-entity-1="ent0002" data-entity-2="ent0007" data-link-type="dependency" data-source-line="67" id="lnk33"><path d="M567.56,133.9061 C566.54,145.5861 566.95,158.3061 570.71,169.5361 C579.64,196.2061 595.1071,217.779 612.0171,236.689" fill="none" id="Teacher-to-Web" style="stroke:#2563EB;stroke-width:1.5;"/><polygon fill="#2563EB" points="615.35,240.4161,612.3324,231.0409,612.0171,236.689,606.369,236.3736,615.35,240.4161" style="stroke:#2563EB;stroke-width:1.5;stroke-linejoin:miter;stroke-miterlimit:10;"/><text fill="#000000" font-family="Microsoft YaHei" font-size="13" lengthAdjust="spacing" textLength="156.4951" x="571.71" y="165.2915">&#21019;&#24314;&#21516;&#27493; / &#35780;&#27979; / &#21457;&#24067;&#20219;&#21153;</text></g><!--link Admin to Web--><g class="link" data-entity-1="ent0003" data-entity-2="ent0007" data-link-type="dependency" data-source-line="68" id="lnk34"><path d="M719.88,117.6661 C731.05,132.0961 741.22,151.5261 734.71,169.5361 C724.95,196.5661 708.2325,217.9478 689.8425,236.5778" fill="none" id="Admin-to-Web" style="stroke:#334155;stroke-width:1.5;"/><polygon fill="#334155" points="686.33,240.1361,695.4993,236.5411,689.8425,236.5778,689.8059,230.921,686.33,240.1361" style="stroke:#334155;stroke-width:1.5;stroke-linejoin:miter;stroke-miterlimit:10;"/><text fill="#000000" font-family="Microsoft YaHei" font-size="13" lengthAdjust="spacing" textLength="182.3237" x="737.71" y="165.2915">&#31649;&#29702;&#37096;&#32626; / &#21518;&#31471; / Secret / &#26435;&#38480;</text></g><!--link TAClient to Issuer--><g class="link" data-entity-1="ent0008" data-entity-2="ent0021" data-link-type="dependency" data-source-line="71" id="lnk36"><path d="M580.54,408.0761 C534.97,414.7061 482.98,429.7161 446.71,462.5361 C426.36,480.9561 417.1423,505.356 411.9823,529.566" fill="none" id="TAClient-to-Issuer" style="stroke:#2563EB;stroke-width:1.5;"/><polygon fill="#2563EB" points="410.94,534.4561,416.7282,526.4877,411.9823,529.566,408.9039,524.82,410.94,534.4561" style="stroke:#2563EB;stroke-width:1.5;stroke-linejoin:miter;stroke-miterlimit:10;"/><text fill="#000000" font-family="Microsoft YaHei" font-size="13" lengthAdjust="spacing" textLength="104.3047" x="447.71" y="477.2915">&#30003;&#35831;&#21161;&#25945;&#21482;&#35835; STS</text></g><!--link Issuer to TAClient--><g class="link" data-entity-1="ent0021" data-entity-2="ent0008" data-link-type="dependency" data-source-line="72" id="lnk37"><path d="M443.87,534.1661 C461.16,517.7061 482.84,500.2361 505.71,489.5361 C525.7,480.1861 534.28,489.8761 554.71,481.5361 C568.3,475.9861 569.42,470.5561 581.71,462.5361 C590.28,456.9461 595.1153,453.8424 604.1553,448.2624" fill="none" id="Issuer-to-TAClient" style="stroke:#334155;stroke-width:1.5;stroke-dasharray:7,7;"/><polygon fill="#334155" points="608.41,445.6361,598.6505,446.9596,604.1553,448.2624,602.8525,453.7672,608.41,445.6361" style="stroke:#334155;stroke-width:1.5;stroke-linejoin:miter;stroke-miterlimit:10;"/><text fill="#000000" font-family="Microsoft YaHei" font-size="13" lengthAdjust="spacing" textLength="78" x="582.71" y="477.2915">&#36820;&#22238;&#21482;&#35835;&#20973;&#35777;</text></g><!--link TAClient to OBS--><g class="link" data-entity-1="ent0008" data-entity-2="ent0022" data-link-type="dependency" data-source-line="73" id="lnk38"><path d="M680.17,445.5861 C678.42,458.9161 673.87,472.5461 663.71,481.5361 C644.53,498.5161 569.46,474.5161 548.71,489.5361 C498.17,526.1261 537.49,573.1861 495.71,619.5361 C475.47,641.9961 452.3821,657.4001 425.8421,670.6701" fill="none" id="TAClient-to-OBS" style="stroke:#2563EB;stroke-width:1.5;"/><polygon fill="#2563EB" points="421.37,672.9061,431.2087,672.4589,425.8421,670.6701,427.631,665.3035,421.37,672.9061" style="stroke:#2563EB;stroke-width:1.5;stroke-linejoin:miter;stroke-miterlimit:10;"/><text fill="#000000" font-family="Microsoft YaHei" font-size="13" lengthAdjust="spacing" textLength="139.2168" x="549.71" y="573.7915">ListBucket / GetObject</text><text fill="#000000" font-family="Microsoft YaHei" font-size="13" lengthAdjust="spacing" textLength="105.606" x="566.5154" y="590.9492">&#25289;&#21462; submissions</text></g><!--link Adapter to Backends--><g class="link" data-entity-1="ent0012" data-entity-2="ent0023" data-link-type="dependency" data-source-line="78" id="lnk43"><path d="M551.07,939.6261 C534.67,936.2061 517.75,933.0061 501.71,930.5361 C480,927.1961 319.57,929.7261 304.71,913.5361 C295.5,903.4961 295.1228,894.9158 301.0028,882.3358" fill="none" id="Adapter-to-Backends" style="stroke:#2563EB;stroke-width:1.5;"/><polygon fill="#2563EB" points="303.12,877.8061,295.6854,884.2657,301.0028,882.3358,302.9328,887.6532,303.12,877.8061" style="stroke:#2563EB;stroke-width:1.5;stroke-linejoin:miter;stroke-miterlimit:10;"/><text fill="#000000" font-family="Microsoft YaHei" font-size="13" lengthAdjust="spacing" textLength="151.3535" x="305.71" y="909.2915">prompt / &#21442;&#25968; / &#27169;&#22411;&#24341;&#29992;</text></g><!--link Backends to Adapter--><g class="link" data-entity-1="ent0023" data-entity-2="ent0012" data-link-type="dependency" data-source-line="79" id="lnk44"><path d="M430.94,877.6761 C440.86,882.9761 450.63,888.6361 459.71,894.5361 C470.54,901.5761 470.38,907.3261 481.71,913.5361 C503.08,925.2361 522.7595,933.021 546.2195,940.211" fill="none" id="Backends-to-Adapter" style="stroke:#334155;stroke-width:1.5;stroke-dasharray:7,7;"/><polygon fill="#334155" points="551,941.6761,543.5672,935.2145,546.2195,940.211,541.223,942.8633,551,941.6761" style="stroke:#334155;stroke-width:1.5;stroke-linejoin:miter;stroke-miterlimit:10;"/><text fill="#000000" font-family="Microsoft YaHei" font-size="13" lengthAdjust="spacing" textLength="168.562" x="482.71" y="909.2915">generation / log / progress</text></g><!--link Worker to Publisher--><g class="link" data-entity-1="ent0011" data-entity-2="ent0013" data-link-type="dependency" data-source-line="80" id="lnk45"><path d="M777.2,868.5561 C781.53,876.7161 785.45,885.6761 787.71,894.5361 C789.81,902.7161 788.89,905.1761 787.71,913.5361 C780.76,962.9861 777.91,976.3161 756.71,1021.5361 C749.56,1036.8061 742.4212,1048.3439 733.0812,1061.4539" fill="none" id="Worker-to-Publisher" style="stroke:#334155;stroke-width:1.5;"/><polygon fill="#334155" points="730.18,1065.5261,738.6599,1060.5171,733.0812,1061.4539,732.1444,1055.8752,730.18,1065.5261" style="stroke:#334155;stroke-width:1.5;stroke-linejoin:miter;stroke-miterlimit:10;"/><text fill="#000000" font-family="Microsoft YaHei" font-size="13" lengthAdjust="spacing" textLength="142.6445" x="785.71" y="969.2915">metrics / logs / reports</text></g><!--link Publisher to OBS--><g class="link" data-entity-1="ent0013" data-entity-2="ent0022" data-link-type="dependency" data-source-line="81" id="lnk46"><path d="M551.07,1084.6461 C420.89,1071.6461 245.38,1049.7661 180.71,1021.5361 C110.61,990.9261 79.72,982.5361 46.71,913.5361 C6,828.4261 112.4393,772.8753 208.4993,740.6753" fill="none" id="Publisher-to-OBS" style="stroke:#334155;stroke-width:1.5;"/><polygon fill="#334155" points="213.24,739.0861,203.4354,738.154,208.4993,740.6753,205.978,745.7392,213.24,739.0861" style="stroke:#334155;stroke-width:1.5;stroke-linejoin:miter;stroke-miterlimit:10;"/><text fill="#000000" font-family="Microsoft YaHei" font-size="13" lengthAdjust="spacing" textLength="79.3711" x="47.71" y="909.2915">&#24402;&#26723; artifacts</text></g><!--link Publisher to Leaderboard--><g class="link" data-entity-1="ent0013" data-entity-2="ent0024" data-link-type="dependency" data-source-line="82" id="lnk47"><path d="M599.67,1065.4661 C525.57,1042.4961 432.4258,1013.6166 363.7158,992.3166" fill="none" id="Publisher-to-Leaderboard" style="stroke:#2563EB;stroke-width:1.5;"/><polygon fill="#2563EB" points="358.94,990.8361,366.352,997.3216,363.7158,992.3166,368.7208,989.6804,358.94,990.8361" style="stroke:#2563EB;stroke-width:1.5;stroke-linejoin:miter;stroke-miterlimit:10;"/><text fill="#000000" font-family="Microsoft YaHei" font-size="13" lengthAdjust="spacing" textLength="78" x="541.71" y="1044.2915">&#21457;&#24067;&#20844;&#24320;&#27036;&#21333;</text></g><g class="caption" data-source-line="24"><text fill="#000000" font-family="Microsoft YaHei" font-size="14" lengthAdjust="spacing" textLength="665.9775" x="146.8662" y="1172.3496">ta-client &#20301;&#20110;&#26412;&#31995;&#32479;&#36793;&#30028;&#20869;&#65307;issuer-server &#26159;&#22806;&#37096; STS &#31614;&#21457;&#26381;&#21153;&#12290;&#23398;&#29983;&#21644;&#21161;&#25945;&#37117;&#36890;&#36807;&#20020;&#26102; STS &#35775;&#38382; OBS&#12290;</text></g><?plantuml-src XLTRJnj757xVNp5Adfqct9hm4CbSt591YEIeKLL7rTeUcotshZMxJdfH9O9385pCfLo34o1D24q3ZdAXnkRoO-hPNJ_rB_JCpDeUBrJX0S_wV7FcpFdE-SxQCZB8Cb3Ki2mZZU8QmJ5BCtH5CKSrFQCIDOsYQcmqIOoi7kyrKWP1bqFyJqAO8shSUA3fIPHGKoQMB7nRp20w9kXQbsG84c8yyForjtTSw-pq6--CQB5H7PickdP5DiPnGisch92XMxVKD4P3MemOff6mq7VgrrYJa9PcfJ33XRLVC6fhaqmPk9EQn3q6YMFYXT7MsTNUttC1wDpzhuU2eLxvbf0qLK-cFkEl2VkinvYHpXWwrgqMZpSwWkqzro-4VPQZk6gfKTNqXTZMszdPVn7Axw-_DzGNacbGOvP1MfnrNGrsXeBd8ESyXK9TBP7fHXoRE8FQEkHSgVee-xAzGr4uZoWqC8JiJpDkyH4z-a3dtpaVAavbgrgQhfPcxDL9TpP7Dp_IpLCbfcPO2IDB3SHI6YG7LK_cgkMyNNWhzhYdHyxAB7qyyU_nfcQQMKm29YRteKJjzI9zkLhBxQ7mdJ1oza_f_A9TcAFJE_-CZTFzNMTvYoxDqka_xPMDMkwaDlRKFPkibZxQQuTyXtjmLbixGCCzOS0h2ay0kYGsNaAgYS9MDWuHDIpS4xVSmMfi19EwnJdOSHOUqyLrRWp6qnhqfBSR1RuVqUAmkaUqv8WLQEprFi_PlUsD-aEN_CcCwBxiy6DlfrGhOP0q-bL1pLf3b-xYABBph-dK8Mn5Nw3WxO68NgrKU9uUsizojOq5MBXdcxIyoxxPUkKMNt2NiBNLLuEbYEuiVt2BVukSqFatRh72aXhHwTHQjNHAZmw1QVVa19dPQ1fu0uvDaRfWh-3vSbzFVp3Kttg0lRT3dy_OsqVEvW4zMR6tTsflPkd6NaIF6Nf2IqBybZ6ATT080ciM_UISG77ltwef3Th28ArknNMTurKxlyIzrTQt852uBJqQT_QVmCAPFhJXyeKozpDCW1lJ8kTT0Gl01Rfha55C8dg6WCb2j7XC9ylLKjwUdRIt9rqeY8CraKCERFL15_BENyNQs7XjOew7mtjZ32KnIA_A--6RyF2jGQ-Se4Ny7kpfLtHncfstMw1pAr3vj9JZhg1Je2M47J8aojbUN7Tt7xB7YRVqU4niOey7En2gi8eYoaPJcidAydBeQkW6j3wSoogeKQKmE_H0WqMmDWZrGMGg6ci_o9Td-T4FRIHIBFpcPfgybH_Gk9hoMqjt2GqHmW49TSyMt9rP9r-aBt8y9Vq_WJDTJVdxAcPaYOa3HjGCc9OPqLl42NYuM9guom4EvRh_PNyVkAqhEKGpbw-MojNo8jEbY2vr3z2b4ajBWEQmTGgheEPHGoLnKR4zOHPVoiZ6eJpoUqoGU9dvxXJHXpGz7ivW70SlzmS7X-1ZE8Fru420tGxABvh24RrFIoIox60m9rJJ-Y6UIgNvIMn8O3rkGloTeNOeaTRQ_lkzg4PHPBMTJxLdBo0TGe_dYq9rHHswhn_33E1E1vlNaKlFovI_QlXTuR_VK0yDh8qeVH3f85O8JPNsNW7k1MxMJ-r6GkJOs3hUPbGgdkNAbPlrwG0ezsoPRZuNA3gvxnOVNkoM1ToD1CuJEgvVGkkQUm3AMguRWHGxXHaG-sgvx5H-jvyNMa1opkfWkS4LQSP8OGZVT6gJLifqOTRUVmKKUx86ai394uAfy5aa1IG67TIrS_AUONc1mIACOmHRdY1lB2WAbmpOrX27-e7IF43cptfCaUJZ_ndmZncP1-a8GOI0UKHSx5umCQYPLayMoeH5_XMsXgC_WYp0T9rvGkTNvSabkO7TJJK3DiilgvLre8WMtjLM2ZGtxx4fIHuxK1QsRYJUHSJSSfu-yegXDC58QzL0bdgXTomNM_RKWc1Aj3I8DvrQKkgA2E2w-44otkMSvJtVg56QuYYbez4htSYRPwmEnkqLzhuWWgF7A-1DQI1PvfjdIOCBbCbWOneS9Gdy8923QqwNRfJ65j5Yfi2p3u8p1h5CfGaAD9YY9qlspXzD_PD1yaLQEyARYd97_0S0?></g></svg>